<?xml version="1.0" encoding="utf-8"?>
<!-- Generator: Adobe Illustrator 26.0.0, SVG Export Plug-In . SVG Version: 6.00 Build 0)  -->
<svg version="1.1" id="Layer_1" xmlns="http://www.w3.org/2000/svg" xmlns:xlink="http://www.w3.org/1999/xlink" x="0px" y="0px"
	 viewBox="0 0 140.4 27" style="enable-background:new 0 0 140.4 27;" xml:space="preserve">
<style type="text/css">
	.st0{fill:#FFFFFF;}
	.st1{fill-rule:evenodd;clip-rule:evenodd;fill:#FF0033;}
</style>
<g>
	<path class="st0" d="M28.3,18.3c-0.7,0-1.3-0.2-1.7-0.7c-0.4-0.5-0.5-1.2-0.5-2.1v-5H28V15c0,0.5,0.1,0.9,0.2,1.2
		c0.2,0.3,0.5,0.4,0.9,0.4s0.6-0.1,0.8-0.3c0.2-0.2,0.3-0.5,0.4-0.9s0.1-0.8,0.1-1.4v-3.6h1.9V18h-1.5l-0.3-1h-0.1
		c-0.1,0.2-0.3,0.4-0.5,0.6s-0.4,0.3-0.7,0.4S28.6,18.3,28.3,18.3z"/>
	<path class="st0" d="M33.7,18.2v-7.6h1.5l0.3,0.9h0.1c0.1-0.2,0.3-0.4,0.5-0.6c0.2-0.2,0.4-0.3,0.7-0.4c0.3-0.1,0.5-0.1,0.9-0.1
		c0.8,0,1.3,0.2,1.7,0.7c0.4,0.4,0.6,1.1,0.6,2v5.1h-2v-4.6c0-0.5-0.1-0.9-0.3-1.2S37.2,12,36.9,12c-0.5,0-0.8,0.2-1,0.6
		c-0.2,0.4-0.3,1-0.3,1.7v3.9C35.6,18.2,33.7,18.2,33.7,18.2z"/>
	<path class="st0" d="M43.1,18.2v-6h-1.8V11l1.8-0.5V10c0-0.6,0.1-1.1,0.3-1.5s0.4-0.7,0.8-0.8c0.4-0.2,0.8-0.3,1.4-0.3
		c0.4,0,0.7,0,1,0.1s0.7,0.1,1,0.2l-0.5,1.6c-0.2-0.1-0.4-0.1-0.6-0.2s-0.4,0-0.5,0c-0.4,0-0.6,0.1-0.8,0.3C45.1,9.6,45,9.8,45,10.2
		v0.3h2.2v1.6H45v6h-1.9V18.2z"/>
	<path class="st0" d="M51,18.3c-0.7,0-1.2-0.2-1.6-0.6c-0.4-0.4-0.6-1-0.6-1.7c0-0.6,0.1-1,0.3-1.4s0.5-0.6,0.9-0.8s0.9-0.3,1.5-0.3
		h1.4v-0.3c0-0.4-0.1-0.7-0.3-0.8c-0.2-0.2-0.6-0.3-1-0.3c-0.2,0-0.5,0-0.8,0.1s-0.6,0.2-1,0.4l-0.7-1.4c0.4-0.2,0.9-0.4,1.3-0.5
		c0.4-0.1,0.9-0.2,1.3-0.2c1,0,1.7,0.2,2.2,0.7c0.5,0.4,0.7,1.1,0.7,2v5.1h-1.3l-0.4-1l0,0c-0.2,0.3-0.4,0.5-0.6,0.7
		c-0.2,0.2-0.4,0.3-0.7,0.4C51.5,18.3,51.2,18.3,51,18.3z M51.6,16.7c0.2,0,0.5-0.1,0.7-0.2s0.4-0.3,0.5-0.5
		c0.1-0.2,0.2-0.5,0.2-0.8v-0.6h-0.8c-0.3,0-0.6,0.1-0.8,0.1S51,15,50.9,15.2s-0.2,0.4-0.2,0.6c0,0.3,0.1,0.5,0.3,0.7
		C51.2,16.6,51.4,16.7,51.6,16.7z"/>
	<path class="st0" d="M56.5,18.2v-1.3l2.1-0.3v-4.5l-1.9-0.2v-1.4h3.7v6.1l1.9,0.3v1.3H56.5z M59.5,9.6c-0.4,0-0.6-0.1-0.8-0.3
		s-0.3-0.5-0.3-0.8c0-0.4,0.1-0.7,0.3-0.8c0.2-0.2,0.5-0.3,0.9-0.3s0.7,0.1,0.8,0.3c0.2,0.2,0.3,0.5,0.3,0.8c0,0.4-0.1,0.6-0.3,0.8
		S59.9,9.6,59.5,9.6z"/>
	<path class="st0" d="M63.7,18.2v-1.3l1.7-0.3v-4.5l-1.5-0.2v-1.4h2.9l0.3,1.3h0.1c0.2-0.4,0.4-0.8,0.7-1s0.7-0.4,1.3-0.4
		c0.2,0,0.5,0,0.7,0.1c0.2,0,0.5,0.1,0.7,0.2L70,12.5c-0.1-0.1-0.3-0.1-0.5-0.2c-0.2,0-0.3-0.1-0.5-0.1c-0.4,0-0.7,0.1-1,0.3
		s-0.5,0.4-0.6,0.8c-0.1,0.3-0.2,0.7-0.2,1.2v2.2L69,17v1.3L63.7,18.2L63.7,18.2z"/>
	<path class="st0" d="M72.5,18.2v-10h2.6c0.8,0,1.4,0.2,2,0.6s1,0.9,1.3,1.6c0.3,0.7,0.4,1.6,0.4,2.7s-0.1,2.1-0.4,2.8
		s-0.7,1.3-1.3,1.7c-0.6,0.4-1.3,0.6-2.1,0.6C75,18.2,72.5,18.2,72.5,18.2z M74.8,17.1c0.9,0,1.6-0.3,2.1-1s0.7-1.7,0.7-3
		c0-0.9-0.1-1.6-0.3-2.2c-0.2-0.6-0.5-1-0.9-1.2c-0.4-0.3-0.9-0.4-1.5-0.4h-1.2v7.8C73.7,17.1,74.8,17.1,74.8,17.1z"/>
	<path class="st0" d="M80.4,18.2v-0.8l2.2-0.2v-5.5l-2.1-0.2v-0.8h3.2v6.5l2,0.2v0.8H80.4z M83.1,9.3c-0.2,0-0.4-0.1-0.6-0.2
		c-0.2-0.2-0.2-0.4-0.2-0.7s0.1-0.6,0.2-0.7s0.4-0.2,0.6-0.2s0.4,0.1,0.6,0.2c0.1,0.1,0.2,0.4,0.2,0.7s-0.1,0.5-0.2,0.7
		S83.4,9.3,83.1,9.3z"/>
	<path class="st0" d="M90.4,18.3c-0.4,0-0.9,0-1.2-0.1s-0.7-0.2-1-0.4v-1.1c0.3,0.2,0.7,0.3,1,0.4c0.4,0.1,0.8,0.2,1.3,0.2
		c0.6,0,1-0.1,1.2-0.3c0.2-0.2,0.3-0.5,0.3-0.8c0-0.2,0-0.4-0.1-0.5s-0.3-0.3-0.5-0.4c-0.2-0.1-0.6-0.3-1.1-0.5
		c-0.4-0.2-0.8-0.4-1.1-0.6c-0.3-0.2-0.6-0.4-0.7-0.7c-0.2-0.3-0.3-0.6-0.3-1s0.1-0.8,0.3-1.1s0.5-0.5,0.9-0.7
		c0.4-0.1,0.9-0.2,1.4-0.2c0.4,0,0.7,0,1.1,0.1s0.7,0.2,1,0.4l-0.4,1c-0.3-0.2-0.7-0.3-0.9-0.3c-0.3-0.1-0.6-0.1-0.8-0.1
		c-0.5,0-0.9,0.1-1.1,0.2c-0.2,0.2-0.4,0.4-0.4,0.7c0,0.2,0.1,0.4,0.2,0.5s0.3,0.3,0.6,0.4s0.6,0.3,1,0.5s0.8,0.4,1.1,0.6
		s0.5,0.4,0.7,0.7s0.2,0.6,0.2,1c0,0.5-0.1,0.8-0.3,1.2c-0.2,0.3-0.5,0.6-0.9,0.7C91.5,18.3,91,18.3,90.4,18.3z"/>
	<path class="st0" d="M94.9,18.2v-7.5h0.8l0.2,0.8H96c0.1-0.2,0.2-0.4,0.3-0.5c0.1-0.1,0.3-0.2,0.4-0.3c0.2-0.1,0.3-0.1,0.5-0.1
		c0.4,0,0.6,0.1,0.8,0.3c0.2,0.2,0.3,0.4,0.4,0.8l0,0c0.1-0.3,0.3-0.6,0.6-0.8c0.2-0.2,0.5-0.2,0.8-0.2s0.6,0.1,0.8,0.2
		s0.4,0.4,0.5,0.7s0.1,0.8,0.1,1.3v5.4h-1.1V13c0-0.3,0-0.5,0-0.7s-0.1-0.4-0.2-0.5s-0.2-0.2-0.4-0.2c-0.2,0-0.4,0.1-0.6,0.3
		c-0.1,0.2-0.2,0.4-0.3,0.8c-0.1,0.3-0.1,0.7-0.1,1.1v4.5h-1.1V13c0-0.3,0-0.6-0.1-0.8c0-0.2-0.1-0.4-0.2-0.5s-0.2-0.2-0.4-0.2
		c-0.3,0-0.4,0.1-0.6,0.3c-0.1,0.2-0.2,0.5-0.3,0.8s0.2,0.8,0.2,1.2v4.4H94.9z"/>
	<path class="st0" d="M103.1,18.2v-0.8l2.2-0.2v-5.5l-2.1-0.2v-0.8h3.2v6.5l2,0.2v0.8H103.1z M105.8,9.3c-0.2,0-0.4-0.1-0.6-0.2
		C105.1,9,105,8.7,105,8.4s0.1-0.6,0.2-0.7s0.4-0.2,0.6-0.2s0.4,0.1,0.6,0.2c0.1,0.1,0.2,0.4,0.2,0.7s-0.1,0.5-0.2,0.7
		C106.2,9.3,106,9.3,105.8,9.3z"/>
	<path class="st0" d="M113,18.3c-0.4,0-0.9,0-1.2-0.1s-0.7-0.2-1-0.4v-1.1c0.3,0.2,0.7,0.3,1,0.4c0.4,0.1,0.8,0.2,1.3,0.2
		c0.6,0,1-0.1,1.2-0.3c0.2-0.2,0.3-0.5,0.3-0.8c0-0.2,0-0.4-0.1-0.5s-0.3-0.3-0.5-0.4c-0.2-0.1-0.6-0.3-1.1-0.5
		c-0.4-0.2-0.8-0.4-1.1-0.6c-0.3-0.2-0.6-0.4-0.7-0.7c-0.2-0.3-0.3-0.6-0.3-1s0.1-0.8,0.3-1.1s0.5-0.5,0.9-0.7
		c0.4-0.1,0.9-0.2,1.4-0.2c0.4,0,0.7,0,1.1,0.1s0.7,0.2,1,0.4l-0.4,1c-0.3-0.2-0.7-0.3-0.9-0.3c-0.3-0.1-0.6-0.1-0.8-0.1
		c-0.5,0-0.9,0.1-1.1,0.2c-0.2,0.2-0.4,0.4-0.4,0.7c0,0.2,0.1,0.4,0.2,0.5s0.3,0.3,0.6,0.4s0.6,0.3,1,0.5s0.8,0.4,1.1,0.6
		s0.5,0.4,0.7,0.7s0.2,0.6,0.2,1c0,0.5-0.1,0.8-0.3,1.2c-0.2,0.3-0.5,0.6-0.9,0.7C114.2,18.3,113.7,18.3,113,18.3z"/>
	<path class="st0" d="M120.6,18.3c-0.4,0-0.9,0-1.2-0.1s-0.7-0.2-1-0.4v-1.1c0.3,0.2,0.7,0.3,1,0.4c0.4,0.1,0.8,0.2,1.3,0.2
		c0.6,0,1-0.1,1.2-0.3c0.2-0.2,0.3-0.5,0.3-0.8c0-0.2,0-0.4-0.1-0.5s-0.3-0.3-0.5-0.4c-0.2-0.1-0.6-0.3-1.1-0.5
		c-0.4-0.2-0.8-0.4-1.1-0.6c-0.3-0.2-0.6-0.4-0.7-0.7c-0.2-0.3-0.3-0.6-0.3-1s0.1-0.8,0.3-1.1s0.5-0.5,0.9-0.7
		c0.4-0.1,0.9-0.2,1.4-0.2c0.4,0,0.7,0,1.1,0.1s0.7,0.2,1,0.4l-0.4,1c-0.3-0.2-0.7-0.3-0.9-0.3c-0.3-0.1-0.6-0.1-0.8-0.1
		c-0.5,0-0.9,0.1-1.1,0.2c-0.2,0.2-0.4,0.4-0.4,0.7c0,0.2,0.1,0.4,0.2,0.5s0.3,0.3,0.6,0.4s0.6,0.3,1,0.5s0.8,0.4,1.1,0.6
		s0.5,0.4,0.7,0.7s0.2,0.6,0.2,1c0,0.5-0.1,0.8-0.3,1.2c-0.2,0.3-0.5,0.6-0.9,0.7C121.8,18.3,121.2,18.3,120.6,18.3z"/>
	<path class="st0" d="M127.8,18.3c-0.6,0-1.2-0.2-1.6-0.5c-0.4-0.4-0.6-0.9-0.6-1.7c0-0.5,0.1-1,0.3-1.3c0.2-0.3,0.6-0.6,1-0.8
		s1-0.3,1.7-0.3h1.4v-0.4c0-0.6-0.2-1.1-0.5-1.3s-0.7-0.4-1.2-0.4c-0.4,0-0.7,0.1-1,0.2c-0.3,0.1-0.6,0.3-0.9,0.4l-0.4-0.9
		c0.4-0.2,0.8-0.4,1.1-0.5c0.4-0.1,0.8-0.2,1.3-0.2c0.9,0,1.5,0.2,2,0.6c0.5,0.4,0.7,1.1,0.7,1.9v5.1h-0.9l-0.2-1l0,0
		c-0.2,0.3-0.4,0.5-0.6,0.6c-0.2,0.2-0.5,0.3-0.7,0.4C128.4,18.3,128.1,18.3,127.8,18.3z M128.1,17.3c0.3,0,0.7-0.1,0.9-0.2
		s0.5-0.4,0.7-0.7c0.2-0.3,0.3-0.7,0.3-1.2v-0.7h-1.1c-0.5,0-0.9,0.1-1.2,0.2c-0.3,0.1-0.5,0.3-0.7,0.5s-0.2,0.5-0.2,0.8
		c0,0.4,0.1,0.8,0.4,0.9S127.7,17.3,128.1,17.3z"/>
	<path class="st0" d="M133.4,18.2v-0.8l2.1-0.2V8.6l-2.1-0.2V7.6h3.3v9.6l2,0.2v0.8H133.4z"/>
</g>
<path class="st1" d="M13.6,2.1L3.7,5.7C2.6,6.1,2,7.4,2.4,8.5l5.5,15c0.4,1.1,1.7,1.7,2.8,1.3l9.8-3.6c1.1-0.4,1.7-1.7,1.3-2.8
	l-5.5-15C16,2.3,14.7,1.7,13.6,2.1z M17.7,14.2l-1.4,3.1L13,15.8l-1.6,3.4l-3-1.5l1.6-3.3l-3.3-1.6l1.3-3l3.4,1.5L13,8l3.1,1.4
	l-1.6,3.3L17.7,14.2z"/>
</svg>
