<?xml version="1.0" encoding="utf-8"?>
<!-- Generator: Adobe Illustrator 26.0.0, SVG Export Plug-In . SVG Version: 6.00 Build 0)  -->
<svg version="1.1" id="Layer_1" xmlns="http://www.w3.org/2000/svg" xmlns:xlink="http://www.w3.org/1999/xlink" x="0px" y="0px"
	 viewBox="0 0 704 86" style="enable-background:new 0 0 704 86;" xml:space="preserve">
<style type="text/css">
	.st0{opacity:6.000000e-02;fill-rule:evenodd;clip-rule:evenodd;fill:#FFFFFF;}
</style>
<g id="Layer_1_00000177447624608363358700000004539197993826753436_">
	<g>
		<g>
			<path class="st0" d="M675.4,75.1c0,2.4,1.8,4.4,4,4.4c3.3,0,6,2.9,6,6.5h-2c0-2.4-1.8-4.4-4-4.4c-3.3,0-6-2.9-6-6.5
				c0-2.4-1.8-4.4-4-4.4c-3.3,0-6-2.9-6-6.5c0-2.4-1.8-4.4-4-4.4v-2.2c3.3,0,6,2.9,6,6.5c0,2.4,1.8,4.4,4,4.4
				C672.7,68.6,675.4,71.5,675.4,75.1z"/>
		</g>
		<g>
			<path class="st0" d="M675.4,46.8c0,2.4,1.8,4.4,4,4.4c3.3,0,6,2.9,6,6.5h-2c0-2.4-1.8-4.4-4-4.4c-3.3,0-6-2.9-6-6.5
				c0-2.4-1.8-4.4-4-4.4c-3.3,0-6-2.9-6-6.5c0-2.4-1.8-4.4-4-4.4v-2.2c3.3,0,6,2.9,6,6.5c0,2.4,1.8,4.4,4,4.4
				C672.7,40.3,675.4,43.2,675.4,46.8z"/>
		</g>
		<g>
			<path class="st0" d="M675.4,17.4c0,2.4,1.8,4.4,4,4.4c3.3,0,6,2.9,6,6.5h-2c0-2.4-1.8-4.4-4-4.4c-3.3,0-6-2.9-6-6.5
				c0-2.4-1.8-4.4-4-4.4c-3.3,0-6-2.9-6-6.5c0-2.4-1.8-4.4-4-4.4V0c3.3,0,6,2.9,6,6.5c0,2.4,1.8,4.4,4,4.4
				C672.7,10.9,675.4,13.8,675.4,17.4z"/>
		</g>
		<g>
			<path class="st0" d="M620.4,46.8c0,2.4,1.8,4.4,4,4.4c3.3,0,6,2.9,6,6.5h-2c0-2.4-1.8-4.4-4-4.4c-3.3,0-6-2.9-6-6.5
				c0-2.4-1.8-4.4-4-4.4c-3.3,0-6-2.9-6-6.5c0-2.4-1.8-4.4-4-4.4v-2.2c3.3,0,6,2.9,6,6.5c0,2.4,1.8,4.4,4,4.4
				C617.8,40.3,620.4,43.2,620.4,46.8z"/>
		</g>
		<g>
			<path class="st0" d="M620.4,17.4c0,2.4,1.8,4.4,4,4.4c3.3,0,6,2.9,6,6.5h-2c0-2.4-1.8-4.4-4-4.4c-3.3,0-6-2.9-6-6.5
				c0-2.4-1.8-4.4-4-4.4c-3.3,0-6-2.9-6-6.5c0-2.4-1.8-4.4-4-4.4V0c3.3,0,6,2.9,6,6.5c0,2.4,1.8,4.4,4,4.4
				C617.8,10.9,620.4,13.8,620.4,17.4z"/>
		</g>
		<g>
			<path class="st0" d="M565.5,46.8c0,2.4,1.8,4.4,4,4.4c3.3,0,6,2.9,6,6.5h-2c0-2.4-1.8-4.4-4-4.4c-3.3,0-6-2.9-6-6.5
				c0-2.4-1.8-4.4-4-4.4c-3.3,0-6-2.9-6-6.5c0-2.4-1.8-4.4-4-4.4v-2.2c3.3,0,6,2.9,6,6.5c0,2.4,1.8,4.4,4,4.4
				C562.8,40.3,565.5,43.2,565.5,46.8z"/>
		</g>
		<g>
			<path class="st0" d="M565.5,17.4c0,2.4,1.8,4.4,4,4.4c3.3,0,6,2.9,6,6.5h-2c0-2.4-1.8-4.4-4-4.4c-3.3,0-6-2.9-6-6.5
				c0-2.4-1.8-4.4-4-4.4c-3.3,0-6-2.9-6-6.5c0-2.4-1.8-4.4-4-4.4V0c3.3,0,6,2.9,6,6.5c0,2.4,1.8,4.4,4,4.4
				C562.8,10.9,565.5,13.8,565.5,17.4z"/>
		</g>
		<g>
			<path class="st0" d="M510.5,46.8c0,2.4,1.8,4.4,4,4.4c3.3,0,6,2.9,6,6.5h-2c0-2.4-1.8-4.4-4-4.4c-3.3,0-6-2.9-6-6.5
				c0-2.4-1.8-4.4-4-4.4c-3.3,0-6-2.9-6-6.5c0-2.4-1.8-4.4-4-4.4v-2.2c3.3,0,6,2.9,6,6.5c0,2.4,1.8,4.4,4,4.4
				C507.9,40.3,510.5,43.2,510.5,46.8z"/>
		</g>
		<g>
			<path class="st0" d="M510.5,17.4c0,2.4,1.8,4.4,4,4.4c3.3,0,6,2.9,6,6.5h-2c0-2.4-1.8-4.4-4-4.4c-3.3,0-6-2.9-6-6.5
				c0-2.4-1.8-4.4-4-4.4c-3.3,0-6-2.9-6-6.5c0-2.4-1.8-4.4-4-4.4V0c3.3,0,6,2.9,6,6.5c0,2.4,1.8,4.4,4,4.4
				C507.9,10.9,510.5,13.8,510.5,17.4z"/>
		</g>
		<g>
			<path class="st0" d="M455.6,46.8c0,2.4,1.8,4.4,4,4.4c3.3,0,6,2.9,6,6.5h-2c0-2.4-1.8-4.4-4-4.4c-3.3,0-6-2.9-6-6.5
				c0-2.4-1.8-4.4-4-4.4c-3.3,0-6-2.9-6-6.5c0-2.4-1.8-4.4-4-4.4v-2.2c3.3,0,6,2.9,6,6.5c0,2.4,1.8,4.4,4,4.4
				C452.9,40.3,455.6,43.2,455.6,46.8z"/>
		</g>
		<g>
			<path class="st0" d="M455.6,17.4c0,2.4,1.8,4.4,4,4.4c3.3,0,6,2.9,6,6.5h-2c0-2.4-1.8-4.4-4-4.4c-3.3,0-6-2.9-6-6.5
				c0-2.4-1.8-4.4-4-4.4c-3.3,0-6-2.9-6-6.5c0-2.4-1.8-4.4-4-4.4V0c3.3,0,6,2.9,6,6.5c0,2.4,1.8,4.4,4,4.4
				C452.9,10.9,455.6,13.8,455.6,17.4z"/>
		</g>
		<g>
			<path class="st0" d="M400.6,46.8c0,2.4,1.8,4.4,4,4.4c3.3,0,6,2.9,6,6.5h-2c0-2.4-1.8-4.4-4-4.4c-3.3,0-6-2.9-6-6.5
				c0-2.4-1.8-4.4-4-4.4c-3.3,0-6-2.9-6-6.5c0-2.4-1.8-4.4-4-4.4v-2.2c3.3,0,6,2.9,6,6.5c0,2.4,1.8,4.4,4,4.4
				C398,40.3,400.6,43.2,400.6,46.8z"/>
		</g>
		<g>
			<path class="st0" d="M400.6,17.4c0,2.4,1.8,4.4,4,4.4c3.3,0,6,2.9,6,6.5h-2c0-2.4-1.8-4.4-4-4.4c-3.3,0-6-2.9-6-6.5
				c0-2.4-1.8-4.4-4-4.4c-3.3,0-6-2.9-6-6.5c0-2.4-1.8-4.4-4-4.4V0c3.3,0,6,2.9,6,6.5c0,2.4,1.8,4.4,4,4.4
				C398,10.9,400.6,13.8,400.6,17.4z"/>
		</g>
		<g>
			<path class="st0" d="M345.7,46.8c0,2.4,1.8,4.4,4,4.4c3.3,0,6,2.9,6,6.5h-2c0-2.4-1.8-4.4-4-4.4c-3.3,0-6-2.9-6-6.5
				c0-2.4-1.8-4.4-4-4.4c-3.3,0-6-2.9-6-6.5c0-2.4-1.8-4.4-4-4.4v-2.2c3.3,0,6,2.9,6,6.5c0,2.4,1.8,4.4,4,4.4
				C343,40.3,345.7,43.2,345.7,46.8z"/>
		</g>
		<g>
			<path class="st0" d="M345.7,17.4c0,2.4,1.8,4.4,4,4.4c3.3,0,6,2.9,6,6.5h-2c0-2.4-1.8-4.4-4-4.4c-3.3,0-6-2.9-6-6.5
				c0-2.4-1.8-4.4-4-4.4c-3.3,0-6-2.9-6-6.5c0-2.4-1.8-4.4-4-4.4V0c3.3,0,6,2.9,6,6.5c0,2.4,1.8,4.4,4,4.4
				C343,10.9,345.7,13.8,345.7,17.4z"/>
		</g>
		<g>
			<path class="st0" d="M290.7,46.8c0,2.4,1.8,4.4,4,4.4c3.3,0,6,2.9,6,6.5h-2c0-2.4-1.8-4.4-4-4.4c-3.3,0-6-2.9-6-6.5
				c0-2.4-1.8-4.4-4-4.4c-3.3,0-6-2.9-6-6.5c0-2.4-1.8-4.4-4-4.4v-2.2c3.3,0,6,2.9,6,6.5c0,2.4,1.8,4.4,4,4.4
				C288.1,40.3,290.7,43.2,290.7,46.8z"/>
		</g>
		<g>
			<path class="st0" d="M290.7,17.4c0,2.4,1.8,4.4,4,4.4c3.3,0,6,2.9,6,6.5h-2c0-2.4-1.8-4.4-4-4.4c-3.3,0-6-2.9-6-6.5
				c0-2.4-1.8-4.4-4-4.4c-3.3,0-6-2.9-6-6.5c0-2.4-1.8-4.4-4-4.4V0c3.3,0,6,2.9,6,6.5c0,2.4,1.8,4.4,4,4.4
				C288.1,10.9,290.7,13.8,290.7,17.4z"/>
		</g>
		<g>
			<path class="st0" d="M235.8,46.8c0,2.4,1.8,4.4,4,4.4c3.3,0,6,2.9,6,6.5h-2c0-2.4-1.8-4.4-4-4.4c-3.3,0-6-2.9-6-6.5
				c0-2.4-1.8-4.4-4-4.4c-3.3,0-6-2.9-6-6.5c0-2.4-1.8-4.4-4-4.4v-2.2c3.3,0,6,2.9,6,6.5c0,2.4,1.8,4.4,4,4.4
				C233.1,40.3,235.8,43.2,235.8,46.8z"/>
		</g>
		<g>
			<path class="st0" d="M235.8,17.4c0,2.4,1.8,4.4,4,4.4c3.3,0,6,2.9,6,6.5h-2c0-2.4-1.8-4.4-4-4.4c-3.3,0-6-2.9-6-6.5
				c0-2.4-1.8-4.4-4-4.4c-3.3,0-6-2.9-6-6.5c0-2.4-1.8-4.4-4-4.4V0c3.3,0,6,2.9,6,6.5c0,2.4,1.8,4.4,4,4.4
				C233.1,10.9,235.8,13.8,235.8,17.4z"/>
		</g>
		<g>
			<path class="st0" d="M180.8,46.8c0,2.4,1.8,4.4,4,4.4c3.3,0,6,2.9,6,6.5h-2c0-2.4-1.8-4.4-4-4.4c-3.3,0-6-2.9-6-6.5
				c0-2.4-1.8-4.4-4-4.4c-3.3,0-6-2.9-6-6.5c0-2.4-1.8-4.4-4-4.4v-2.2c3.3,0,6,2.9,6,6.5c0,2.4,1.8,4.4,4,4.4
				C178.2,40.3,180.8,43.2,180.8,46.8z"/>
		</g>
		<g>
			<path class="st0" d="M180.8,17.4c0,2.4,1.8,4.4,4,4.4c3.3,0,6,2.9,6,6.5h-2c0-2.4-1.8-4.4-4-4.4c-3.3,0-6-2.9-6-6.5
				c0-2.4-1.8-4.4-4-4.4c-3.3,0-6-2.9-6-6.5c0-2.4-1.8-4.4-4-4.4V0c3.3,0,6,2.9,6,6.5c0,2.4,1.8,4.4,4,4.4
				C178.2,10.9,180.8,13.8,180.8,17.4z"/>
		</g>
		<g>
			<path class="st0" d="M125.9,46.8c0,2.4,1.8,4.4,4,4.4c3.3,0,6,2.9,6,6.5h-2c0-2.4-1.8-4.4-4-4.4c-3.3,0-6-2.9-6-6.5
				c0-2.4-1.8-4.4-4-4.4c-3.3,0-6-2.9-6-6.5c0-2.4-1.8-4.4-4-4.4v-2.2c3.3,0,6,2.9,6,6.5c0,2.4,1.8,4.4,4,4.4
				C123.2,40.3,125.9,43.2,125.9,46.8z"/>
		</g>
		<g>
			<path class="st0" d="M125.9,17.4c0,2.4,1.8,4.4,4,4.4c3.3,0,6,2.9,6,6.5h-2c0-2.4-1.8-4.4-4-4.4c-3.3,0-6-2.9-6-6.5
				c0-2.4-1.8-4.4-4-4.4c-3.3,0-6-2.9-6-6.5c0-2.4-1.8-4.4-4-4.4V0c3.3,0,6,2.9,6,6.5c0,2.4,1.8,4.4,4,4.4
				C123.2,10.9,125.9,13.8,125.9,17.4z"/>
		</g>
		<g>
			<path class="st0" d="M70.9,46.8c0,2.4,1.8,4.4,4,4.4c3.3,0,6,2.9,6,6.5h-2c0-2.4-1.8-4.4-4-4.4c-3.3,0-6-2.9-6-6.5
				c0-2.4-1.8-4.4-4-4.4c-3.3,0-6-2.9-6-6.5c0-2.4-1.8-4.4-4-4.4v-2.2c3.3,0,6,2.9,6,6.5c0,2.4,1.8,4.4,4,4.4
				C68.3,40.3,70.9,43.2,70.9,46.8z"/>
		</g>
		<g>
			<path class="st0" d="M70.9,17.4c0,2.4,1.8,4.4,4,4.4c3.3,0,6,2.9,6,6.5h-2c0-2.4-1.8-4.4-4-4.4c-3.3,0-6-2.9-6-6.5
				c0-2.4-1.8-4.4-4-4.4c-3.3,0-6-2.9-6-6.5c0-2.4-1.8-4.4-4-4.4V0c3.3,0,6,2.9,6,6.5c0,2.4,1.8,4.4,4,4.4
				C68.3,10.9,70.9,13.8,70.9,17.4z"/>
		</g>
		<g>
			<path class="st0" d="M16,46.8c0,2.4,1.8,4.4,4,4.4c3.3,0,6,2.9,6,6.5h-2c0-2.4-1.8-4.4-4-4.4c-3.3,0-6-2.9-6-6.5
				c0-2.4-1.8-4.4-4-4.4c-3.3,0-6-2.9-6-6.5c0-2.4-1.8-4.4-4-4.4v-2.2c3.3,0,6,2.9,6,6.5c0,2.4,1.8,4.4,4,4.4
				C13.3,40.3,16,43.2,16,46.8z"/>
		</g>
		<g>
			<path class="st0" d="M16,17.4c0,2.4,1.8,4.4,4,4.4c3.3,0,6,2.9,6,6.5h-2c0-2.4-1.8-4.4-4-4.4c-3.3,0-6-2.9-6-6.5
				c0-2.4-1.8-4.4-4-4.4c-3.3,0-6-2.9-6-6.5c0-2.4-1.8-4.4-4-4.4V0c3.3,0,6,2.9,6,6.5c0,2.4,1.8,4.4,4,4.4
				C13.3,10.9,16,13.8,16,17.4z"/>
		</g>
		<g>
			<path class="st0" d="M620.4,75.1c0,2.4,1.8,4.4,4,4.4c3.3,0,6,2.9,6,6.5h-2c0-2.4-1.8-4.4-4-4.4c-3.3,0-6-2.9-6-6.5
				c0-2.4-1.8-4.4-4-4.4c-3.3,0-6-2.9-6-6.5c0-2.4-1.8-4.4-4-4.4v-2.2c3.3,0,6,2.9,6,6.5c0,2.4,1.8,4.4,4,4.4
				C617.8,68.6,620.4,71.5,620.4,75.1z"/>
		</g>
		<g>
			<path class="st0" d="M565.5,75.1c0,2.4,1.8,4.4,4,4.4c3.3,0,6,2.9,6,6.5h-2c0-2.4-1.8-4.4-4-4.4c-3.3,0-6-2.9-6-6.5
				c0-2.4-1.8-4.4-4-4.4c-3.3,0-6-2.9-6-6.5c0-2.4-1.8-4.4-4-4.4v-2.2c3.3,0,6,2.9,6,6.5c0,2.4,1.8,4.4,4,4.4
				C562.8,68.6,565.5,71.5,565.5,75.1z"/>
		</g>
		<g>
			<path class="st0" d="M510.5,75.1c0,2.4,1.8,4.4,4,4.4c3.3,0,6,2.9,6,6.5h-2c0-2.4-1.8-4.4-4-4.4c-3.3,0-6-2.9-6-6.5
				c0-2.4-1.8-4.4-4-4.4c-3.3,0-6-2.9-6-6.5c0-2.4-1.8-4.4-4-4.4v-2.2c3.3,0,6,2.9,6,6.5c0,2.4,1.8,4.4,4,4.4
				C507.9,68.6,510.5,71.5,510.5,75.1z"/>
		</g>
		<g>
			<path class="st0" d="M455.6,75.1c0,2.4,1.8,4.4,4,4.4c3.3,0,6,2.9,6,6.5h-2c0-2.4-1.8-4.4-4-4.4c-3.3,0-6-2.9-6-6.5
				c0-2.4-1.8-4.4-4-4.4c-3.3,0-6-2.9-6-6.5c0-2.4-1.8-4.4-4-4.4v-2.2c3.3,0,6,2.9,6,6.5c0,2.4,1.8,4.4,4,4.4
				C452.9,68.6,455.6,71.5,455.6,75.1z"/>
		</g>
		<g>
			<path class="st0" d="M400.6,75.1c0,2.4,1.8,4.4,4,4.4c3.3,0,6,2.9,6,6.5h-2c0-2.4-1.8-4.4-4-4.4c-3.3,0-6-2.9-6-6.5
				c0-2.4-1.8-4.4-4-4.4c-3.3,0-6-2.9-6-6.5c0-2.4-1.8-4.4-4-4.4v-2.2c3.3,0,6,2.9,6,6.5c0,2.4,1.8,4.4,4,4.4
				C398,68.6,400.6,71.5,400.6,75.1z"/>
		</g>
		<g>
			<path class="st0" d="M345.7,75.1c0,2.4,1.8,4.4,4,4.4c3.3,0,6,2.9,6,6.5h-2c0-2.4-1.8-4.4-4-4.4c-3.3,0-6-2.9-6-6.5
				c0-2.4-1.8-4.4-4-4.4c-3.3,0-6-2.9-6-6.5c0-2.4-1.8-4.4-4-4.4v-2.2c3.3,0,6,2.9,6,6.5c0,2.4,1.8,4.4,4,4.4
				C343,68.6,345.7,71.5,345.7,75.1z"/>
		</g>
		<g>
			<path class="st0" d="M290.7,75.1c0,2.4,1.8,4.4,4,4.4c3.3,0,6,2.9,6,6.5h-2c0-2.4-1.8-4.4-4-4.4c-3.3,0-6-2.9-6-6.5
				c0-2.4-1.8-4.4-4-4.4c-3.3,0-6-2.9-6-6.5c0-2.4-1.8-4.4-4-4.4v-2.2c3.3,0,6,2.9,6,6.5c0,2.4,1.8,4.4,4,4.4
				C288.1,68.6,290.7,71.5,290.7,75.1z"/>
		</g>
		<g>
			<path class="st0" d="M235.8,75.1c0,2.4,1.8,4.4,4,4.4c3.3,0,6,2.9,6,6.5h-2c0-2.4-1.8-4.4-4-4.4c-3.3,0-6-2.9-6-6.5
				c0-2.4-1.8-4.4-4-4.4c-3.3,0-6-2.9-6-6.5c0-2.4-1.8-4.4-4-4.4v-2.2c3.3,0,6,2.9,6,6.5c0,2.4,1.8,4.4,4,4.4
				C233.1,68.6,235.8,71.5,235.8,75.1z"/>
		</g>
		<g>
			<path class="st0" d="M180.8,75.1c0,2.4,1.8,4.4,4,4.4c3.3,0,6,2.9,6,6.5h-2c0-2.4-1.8-4.4-4-4.4c-3.3,0-6-2.9-6-6.5
				c0-2.4-1.8-4.4-4-4.4c-3.3,0-6-2.9-6-6.5c0-2.4-1.8-4.4-4-4.4v-2.2c3.3,0,6,2.9,6,6.5c0,2.4,1.8,4.4,4,4.4
				C178.2,68.6,180.8,71.5,180.8,75.1z"/>
		</g>
		<g>
			<path class="st0" d="M125.9,75.1c0,2.4,1.8,4.4,4,4.4c3.3,0,6,2.9,6,6.5h-2c0-2.4-1.8-4.4-4-4.4c-3.3,0-6-2.9-6-6.5
				c0-2.4-1.8-4.4-4-4.4c-3.3,0-6-2.9-6-6.5c0-2.4-1.8-4.4-4-4.4v-2.2c3.3,0,6,2.9,6,6.5c0,2.4,1.8,4.4,4,4.4
				C123.2,68.6,125.9,71.5,125.9,75.1z"/>
		</g>
		<g>
			<path class="st0" d="M70.9,75.1c0,2.4,1.8,4.4,4,4.4c3.3,0,6,2.9,6,6.5h-2c0-2.4-1.8-4.4-4-4.4c-3.3,0-6-2.9-6-6.5
				c0-2.4-1.8-4.4-4-4.4c-3.3,0-6-2.9-6-6.5c0-2.4-1.8-4.4-4-4.4v-2.2c3.3,0,6,2.9,6,6.5c0,2.4,1.8,4.4,4,4.4
				C68.3,68.6,70.9,71.5,70.9,75.1z"/>
		</g>
		<g>
			<path class="st0" d="M16,75.1c0,2.4,1.8,4.4,4,4.4c3.3,0,6,2.9,6,6.5h-2c0-2.4-1.8-4.4-4-4.4c-3.3,0-6-2.9-6-6.5
				c0-2.4-1.8-4.4-4-4.4c-3.3,0-6-2.9-6-6.5c0-2.4-1.8-4.4-4-4.4v-2.2c3.3,0,6,2.9,6,6.5c0,2.4,1.8,4.4,4,4.4
				C13.3,68.6,16,71.5,16,75.1z"/>
		</g>
	</g>
</g>
<g id="Layer_2_00000170969659395047119450000016425026340766931087_">
	<g>
		<g>
			<g>
				<polygon class="st0" points="44,16.8 41.4,14.2 44,11.6 41.6,9.2 39,11.8 36.3,9.2 34,11.6 36.6,14.2 34,16.8 36.3,19.2 
					39,16.6 41.6,19.2 				"/>
			</g>
			<g>
				<polygon class="st0" points="99,16.8 96.4,14.2 99,11.6 96.6,9.2 94,11.8 91.3,9.2 89,11.6 91.6,14.2 89,16.8 91.3,19.2 
					94,16.6 96.6,19.2 				"/>
			</g>
			<g>
				<polygon class="st0" points="154,16.8 151.4,14.2 154,11.6 151.6,9.2 149,11.8 146.3,9.2 144,11.6 146.6,14.2 144,16.8 
					146.3,19.2 149,16.6 151.6,19.2 				"/>
			</g>
			<g>
				<polygon class="st0" points="209,16.8 206.4,14.2 209,11.6 206.6,9.2 204,11.8 201.3,9.2 199,11.6 201.6,14.2 199,16.8 
					201.3,19.2 204,16.6 206.6,19.2 				"/>
			</g>
			<g>
				<polygon class="st0" points="264,16.8 261.4,14.2 264,11.6 261.6,9.2 259,11.8 256.3,9.2 254,11.6 256.6,14.2 254,16.8 
					256.3,19.2 259,16.6 261.6,19.2 				"/>
			</g>
			<g>
				<polygon class="st0" points="319,16.8 316.4,14.2 319,11.6 316.6,9.2 314,11.8 311.3,9.2 309,11.6 311.6,14.2 309,16.8 
					311.3,19.2 314,16.6 316.6,19.2 				"/>
			</g>
			<g>
				<polygon class="st0" points="374,16.8 371.4,14.2 374,11.6 371.6,9.2 369,11.8 366.3,9.2 364,11.6 366.6,14.2 364,16.8 
					366.3,19.2 369,16.6 371.6,19.2 				"/>
			</g>
			<g>
				<polygon class="st0" points="429,16.8 426.4,14.2 429,11.6 426.6,9.2 424,11.8 421.3,9.2 419,11.6 421.6,14.2 419,16.8 
					421.3,19.2 424,16.6 426.6,19.2 				"/>
			</g>
			<g>
				<polygon class="st0" points="484,16.8 481.4,14.2 484,11.6 481.6,9.2 479,11.8 476.3,9.2 474,11.6 476.6,14.2 474,16.8 
					476.3,19.2 479,16.6 481.6,19.2 				"/>
			</g>
			<g>
				<polygon class="st0" points="539,16.8 536.4,14.2 539,11.6 536.6,9.2 534,11.8 531.3,9.2 529,11.6 531.6,14.2 529,16.8 
					531.3,19.2 534,16.6 536.6,19.2 				"/>
			</g>
			<g>
				<polygon class="st0" points="594,16.8 591.4,14.2 594,11.6 591.6,9.2 589,11.8 586.3,9.2 584,11.6 586.6,14.2 584,16.8 
					586.3,19.2 589,16.6 591.6,19.2 				"/>
			</g>
			<g>
				<polygon class="st0" points="649,16.8 646.4,14.2 649,11.6 646.6,9.2 644,11.8 641.3,9.2 639,11.6 641.6,14.2 639,16.8 
					641.3,19.2 644,16.6 646.6,19.2 				"/>
			</g>
			<g>
				<polygon class="st0" points="704,16.8 701.4,14.2 704,11.6 701.6,9.2 699,11.8 696.3,9.2 694,11.6 696.6,14.2 694,16.8 
					696.3,19.2 699,16.6 701.6,19.2 				"/>
			</g>
		</g>
		<g>
			<g>
				<polygon class="st0" points="44,45.6 41.4,43 44,40.4 41.6,38 39,40.6 36.3,38 34,40.4 36.6,43 34,45.6 36.3,48 39,45.4 
					41.6,48 				"/>
			</g>
			<g>
				<polygon class="st0" points="99,45.6 96.4,43 99,40.4 96.6,38 94,40.6 91.3,38 89,40.4 91.6,43 89,45.6 91.3,48 94,45.4 
					96.6,48 				"/>
			</g>
			<g>
				<polygon class="st0" points="154,45.6 151.4,43 154,40.4 151.6,38 149,40.6 146.3,38 144,40.4 146.6,43 144,45.6 146.3,48 
					149,45.4 151.6,48 				"/>
			</g>
			<g>
				<polygon class="st0" points="209,45.6 206.4,43 209,40.4 206.6,38 204,40.6 201.3,38 199,40.4 201.6,43 199,45.6 201.3,48 
					204,45.4 206.6,48 				"/>
			</g>
			<g>
				<polygon class="st0" points="264,45.6 261.4,43 264,40.4 261.6,38 259,40.6 256.3,38 254,40.4 256.6,43 254,45.6 256.3,48 
					259,45.4 261.6,48 				"/>
			</g>
			<g>
				<polygon class="st0" points="319,45.6 316.4,43 319,40.4 316.6,38 314,40.6 311.3,38 309,40.4 311.6,43 309,45.6 311.3,48 
					314,45.4 316.6,48 				"/>
			</g>
			<g>
				<polygon class="st0" points="374,45.6 371.4,43 374,40.4 371.6,38 369,40.6 366.3,38 364,40.4 366.6,43 364,45.6 366.3,48 
					369,45.4 371.6,48 				"/>
			</g>
			<g>
				<polygon class="st0" points="429,45.6 426.4,43 429,40.4 426.6,38 424,40.6 421.3,38 419,40.4 421.6,43 419,45.6 421.3,48 
					424,45.4 426.6,48 				"/>
			</g>
			<g>
				<polygon class="st0" points="484,45.6 481.4,43 484,40.4 481.6,38 479,40.6 476.3,38 474,40.4 476.6,43 474,45.6 476.3,48 
					479,45.4 481.6,48 				"/>
			</g>
			<g>
				<polygon class="st0" points="539,45.6 536.4,43 539,40.4 536.6,38 534,40.6 531.3,38 529,40.4 531.6,43 529,45.6 531.3,48 
					534,45.4 536.6,48 				"/>
			</g>
			<g>
				<polygon class="st0" points="594,45.6 591.4,43 594,40.4 591.6,38 589,40.6 586.3,38 584,40.4 586.6,43 584,45.6 586.3,48 
					589,45.4 591.6,48 				"/>
			</g>
			<g>
				<polygon class="st0" points="649,45.6 646.4,43 649,40.4 646.6,38 644,40.6 641.3,38 639,40.4 641.6,43 639,45.6 641.3,48 
					644,45.4 646.6,48 				"/>
			</g>
			<g>
				<polygon class="st0" points="704,45.6 701.4,43 704,40.4 701.6,38 699,40.6 696.3,38 694,40.4 696.6,43 694,45.6 696.3,48 
					699,45.4 701.6,48 				"/>
			</g>
		</g>
		<g>
			<g>
				<polygon class="st0" points="44,74.4 41.4,71.8 44,69.2 41.6,66.8 39,69.4 36.3,66.8 34,69.2 36.6,71.8 34,74.4 36.3,76.8 
					39,74.2 41.6,76.8 				"/>
			</g>
			<g>
				<polygon class="st0" points="99,74.4 96.4,71.8 99,69.2 96.6,66.8 94,69.4 91.3,66.8 89,69.2 91.6,71.8 89,74.4 91.3,76.8 
					94,74.2 96.6,76.8 				"/>
			</g>
			<g>
				<polygon class="st0" points="154,74.4 151.4,71.8 154,69.2 151.6,66.8 149,69.4 146.3,66.8 144,69.2 146.6,71.8 144,74.4 
					146.3,76.8 149,74.2 151.6,76.8 				"/>
			</g>
			<g>
				<polygon class="st0" points="209,74.4 206.4,71.8 209,69.2 206.6,66.8 204,69.4 201.3,66.8 199,69.2 201.6,71.8 199,74.4 
					201.3,76.8 204,74.2 206.6,76.8 				"/>
			</g>
			<g>
				<polygon class="st0" points="264,74.4 261.4,71.8 264,69.2 261.6,66.8 259,69.4 256.3,66.8 254,69.2 256.6,71.8 254,74.4 
					256.3,76.8 259,74.2 261.6,76.8 				"/>
			</g>
			<g>
				<polygon class="st0" points="319,74.4 316.4,71.8 319,69.2 316.6,66.8 314,69.4 311.3,66.8 309,69.2 311.6,71.8 309,74.4 
					311.3,76.8 314,74.2 316.6,76.8 				"/>
			</g>
			<g>
				<polygon class="st0" points="374,74.4 371.4,71.8 374,69.2 371.6,66.8 369,69.4 366.3,66.8 364,69.2 366.6,71.8 364,74.4 
					366.3,76.8 369,74.2 371.6,76.8 				"/>
			</g>
			<g>
				<polygon class="st0" points="429,74.4 426.4,71.8 429,69.2 426.6,66.8 424,69.4 421.3,66.8 419,69.2 421.6,71.8 419,74.4 
					421.3,76.8 424,74.2 426.6,76.8 				"/>
			</g>
			<g>
				<polygon class="st0" points="484,74.4 481.4,71.8 484,69.2 481.6,66.8 479,69.4 476.3,66.8 474,69.2 476.6,71.8 474,74.4 
					476.3,76.8 479,74.2 481.6,76.8 				"/>
			</g>
			<g>
				<polygon class="st0" points="539,74.4 536.4,71.8 539,69.2 536.6,66.8 534,69.4 531.3,66.8 529,69.2 531.6,71.8 529,74.4 
					531.3,76.8 534,74.2 536.6,76.8 				"/>
			</g>
			<g>
				<polygon class="st0" points="594,74.4 591.4,71.8 594,69.2 591.6,66.8 589,69.4 586.3,66.8 584,69.2 586.6,71.8 584,74.4 
					586.3,76.8 589,74.2 591.6,76.8 				"/>
			</g>
			<g>
				<polygon class="st0" points="649,74.4 646.4,71.8 649,69.2 646.6,66.8 644,69.4 641.3,66.8 639,69.2 641.6,71.8 639,74.4 
					641.3,76.8 644,74.2 646.6,76.8 				"/>
			</g>
			<g>
				<polygon class="st0" points="704,74.4 701.4,71.8 704,69.2 701.6,66.8 699,69.4 696.3,66.8 694,69.2 696.6,71.8 694,74.4 
					696.3,76.8 699,74.2 701.6,76.8 				"/>
			</g>
		</g>
	</g>
</g>
</svg>
